Coordinates
version=1
nRows=18
nColumns=22
inDegrees=yes

Units are S.I. units (second, meters, Newtons, ...)
If the header above contains a line with 'inDegrees', this indicates whether rotational values are in degrees (yes) or radians (no).

endheader
time	pelvis_tilt	pelvis_list	pelvis_rotation	pelvis_tx	pelvis_ty	pelvis_tz	hip_flexion_r	hip_adduction_r	hip_rotation_r	knee_angle_r	ankle_angle_r	subtalar_angle_r	hip_flexion_l	hip_adduction_l	hip_rotation_l	knee_angle_l	ankle_angle_l	subtalar_angle_l	lumbar_extension	lumbar_bending	lumbar_rotation
      5.34000000	     -2.72435876	     -5.12746684	    -93.81967183	      0.78356644	      1.07058107	      0.42829540	      3.55287971	     10.28868158	    -20.44745588	    -14.03793767	     10.27679553	    -13.43409862	     10.47856890	     -6.68072813	      4.26224011	    -63.78118156	     -4.58315982	      8.67258242	     -7.25069604	      3.31848316	     -5.66295395
      5.35000000	     -2.67807643	     -5.08393216	    -94.88477064	      0.77992960	      1.07113386	      0.43561568	      2.90311269	     10.45582040	    -19.39577948	    -13.73283011	     10.39665146	    -13.28613471	     11.42626514	     -6.55003779	      4.49917140	    -63.39009942	     -3.52464951	      7.78043473	     -7.24742765	      3.08662125	     -5.23813927
      5.36000000	     -2.62964771	     -5.00975252	    -95.98108006	      0.77621600	      1.07159246	      0.44279290	      2.29239444	     10.60381582	    -18.30829470	    -13.44087824	     10.50398142	    -13.14294453	     12.35187829	     -6.45234742	      4.68429660	    -62.81119700	     -2.44956771	      6.93007043	     -7.21744059	      2.85581819	     -4.79541162
      5.37000000	     -2.58808363	     -4.89917333	    -97.11777155	      0.77242112	      1.07195402	      0.44982429	      1.72459812	     10.74732611	    -17.14441537	    -13.16038893	     10.59505882	    -13.01362423	     13.26010766	     -6.40053890	      4.81311417	    -62.05510241	     -1.38549316	      6.23106522	     -7.15439336	      2.63978078	     -4.33010233
      5.38000000	     -2.54922289	     -4.78054980	    -98.27043278	      0.76859724	      1.07225181	      0.45673466	      1.17623209	     10.87165840	    -15.97726654	    -12.90256902	     10.67285377	    -12.88987087	     14.11759310	     -6.38294437	      4.89819597	    -61.12522253	     -0.31433539	      5.48391754	     -7.08651193	      2.43461026	     -3.86732581
      5.39000000	     -2.51934416	     -4.65208314	    -99.44217500	      0.76475310	      1.07248391	      0.46351523	      0.64721471	     10.98646255	    -14.78551813	    -12.66511547	     10.73623360	    -12.77643861	     14.92731415	     -6.40418384	      4.93796722	    -60.03450080	      0.72380608	      4.78393757	     -7.01484691	      2.25003107	     -3.40616390
      5.40000000	     -2.49652639	     -4.53744183	   -100.62457766	      0.76091065	      1.07268580	      0.47019116	      0.11083036	     11.08320210	    -13.60145313	    -12.44577411	     10.78958464	    -12.66865118	     15.65770300	     -6.45647644	      4.92592513	    -58.78341604	      1.71825170	      4.02552906	     -6.96280498	      2.08047289	     -2.94859336
      5.41000000	     -2.48497571	     -4.40535997	   -101.82972345	      0.75702669	      1.07281101	      0.47678127	     -0.41737553	     11.17923110	    -12.37885852	    -12.21878702	     10.84357862	    -12.56432562	     16.34505605	     -6.55582122	      4.84564416	    -57.39349231	      2.60955786	      3.43069102	     -6.88941152	      1.93357393	     -2.48714505
      5.42000000	     -2.48453278	     -4.25728126	   -103.04309741	      0.75312943	      1.07285890	      0.48329583	     -0.93724839	     11.27363644	    -11.13191580	    -11.98831065	     10.91820293	    -12.45781744	     16.99082020	     -6.69489036	      4.70337659	    -55.87858214	      3.37388349	      2.94978426	     -6.79633052	      1.81132128	     -2.03457124
      5.43000000	     -2.48593641	     -4.14633723	   -104.25915692	      0.74925491	      1.07292212	      0.48979500	     -1.50558762	     11.33779741	     -9.91136371	    -11.75127747	     10.99720857	    -12.34062233	     17.52353134	     -6.84276442	      4.48815744	    -54.22715178	      4.04257099	      2.38983501	     -6.73715415	      1.69513196	     -1.58169333
      5.44000000	     -2.48598139	     -4.06352326	   -105.47281030	      0.74540118	      1.07297970	      0.49631003	     -2.10644732	     11.36733533	     -8.73528037	    -11.51787553	     11.09279488	    -12.21160404	     17.95630029	     -6.99064788	      4.20318670	    -52.45803475	      4.65675045	      1.82666735	     -6.69438923	      1.57992179	     -1.13930256
      5.45000000	     -2.48006381	     -3.97037787	   -106.68473855	      0.74157771	      1.07298273	      0.50282561	     -2.69918919	     11.37132812	     -7.54756267	    -11.28431537	     11.20901958	    -12.07649623	     18.34295494	     -7.13645613	      3.85557460	    -50.59787026	      5.16803824	      1.39657944	     -6.62613462	      1.47407289	     -0.70450160
      5.46000000	     -2.46192161	     -3.88830303	   -107.88258809	      0.73782414	      1.07296522	      0.50935679	     -3.29421659	     11.33374314	     -6.38293538	    -11.06264775	     11.34888806	    -11.93264226	     18.66134605	     -7.25404840	      3.46222347	    -48.65176103	      5.62183341	      1.05541780	     -6.55431524	      1.36611335	     -0.27878430
      5.47000000	     -2.42840512	     -3.80611504	   -109.05568808	      0.73416362	      1.07290720	      0.51590495	     -3.87183569	     11.25631941	     -5.23795274	    -10.85955073	     11.51751522	    -11.78358217	     18.93235705	     -7.33166221	      3.04565056	    -46.63661265	      6.00874265	      0.84315285	     -6.46606821	      1.25740956	      0.12010455
      5.48000000	     -2.37308071	     -3.73582345	   -110.20465946	      0.73063538	      1.07282454	      0.52248615	     -4.43052774	     11.12463665	     -4.14076058	    -10.69074165	     11.70296162	    -11.62740283	     19.14360601	     -7.34576015	      2.62242577	    -44.56005774	      6.35391595	      0.75709424	     -6.37250850	      1.14527716	      0.49262046
      5.49000000	     -2.29678018	     -3.67518386	   -111.30736661	      0.72725367	      1.07270719	      0.52909648	     -4.96319331	     10.94587868	     -3.10472645	    -10.55500683	     11.90454382	    -11.46885099	     19.30918678	     -7.28506010	      2.23350121	    -42.43839159	      6.63930490	      0.82279294	     -6.27241545	      1.02789237	      0.81399083
      5.50000000	     -2.19793365	     -3.61339524	   -112.36075958	      0.72400305	      1.07252546	      0.53572063	     -5.45504263	     10.72740038	     -2.12903370	    -10.45335063	     12.13387018	    -11.31569825	     19.44916081	     -7.14553889	      1.91129975	    -40.29100014	      6.84690772	      1.05605538	     -6.15559623	      0.90538227	      1.08849710
      5.51000000	     -2.07980148	     -3.56389958	   -113.35702189	      0.72090032	      1.07229528	      0.54233929	     -5.90455787	     10.47202251	     -1.22258200	    -10.41135995	     12.37719786	    -11.17011521	     19.55422466	     -6.92231121	      1.67604908	    -38.12640744	      6.97445943	      1.47239485	     -6.04334265	      0.77830084	      1.28909027
